<svg viewBox="0 -0.5 25 25" fill="none" xmlns="http://www.w3.org/2000/svg"><g id="SVGRepo_bgCarrier" stroke-width="0"></g><g id="SVGRepo_tracerCarrier" stroke-linecap="round" stroke-linejoin="round"></g><g id="SVGRepo_iconCarrier"> <path fill-rule="evenodd" clip-rule="evenodd" d="M5.5 12.9543C5.51239 14.0398 5.95555 15.076 6.73197 15.8348C7.50838 16.5936 8.55445 17.0128 9.64 17.0003H10.2L11.86 18.7323C12.0291 18.9036 12.2598 19 12.5005 19C12.7412 19 12.9719 18.9036 13.141 18.7323L14.8 17.0003H15.36C16.4456 17.0128 17.4916 16.5936 18.268 15.8348C19.0444 15.076 19.4876 14.0398 19.5 12.9543V8.04428C19.4731 5.7845 17.6198 3.97417 15.36 4.00028H9.64C7.38021 3.97417 5.5269 5.7845 5.5 8.04428V12.9543Z" stroke="#ffffff" stroke-width="1.5" stroke-linecap="round" stroke-linejoin="round"></path> <path d="M9.5 8.25024C9.08579 8.25024 8.75 8.58603 8.75 9.00024C8.75 9.41446 9.08579 9.75024 9.5 9.75024V8.25024ZM15.5 9.75024C15.9142 9.75024 16.25 9.41446 16.25 9.00024C16.25 8.58603 15.9142 8.25024 15.5 8.25024V9.75024ZM9.5 11.2502C9.08579 11.2502 8.75 11.586 8.75 12.0002C8.75 12.4145 9.08579 12.7502 9.5 12.7502V11.2502ZM15.5 12.7502C15.9142 12.7502 16.25 12.4145 16.25 12.0002C16.25 11.586 15.9142 11.2502 15.5 11.2502V12.7502ZM9.5 9.75024H15.5V8.25024H9.5V9.75024ZM9.5 12.7502H15.5V11.2502H9.5V12.7502Z" fill="#ffffff"></path> </g></svg>
