<svg version="1.0" xmlns="http://www.w3.org/2000/svg"
     width="2639.000000pt" height="815.000000pt" viewBox="0 0 2639.000000 815.000000"
     preserveAspectRatio="xMidYMid meet">

    <g transform="translate(0.000000,815.000000) scale(0.100000,-0.100000)"
       fill="white" stroke="none">
        <path d="M2263 8140 l-2102 -5 874 -780 c481 -429 881 -781 888 -783 11 -2
2413 774 2425 784 6 4 172 756 172 776 0 16 -9 18 -77 16 -43 -2 -1024 -5
-2180 -8z"/>
        <path d="M4725 8138 c-12 -35 -156 -700 -152 -704 4 -5 2187 703 2196 712 2 2
-456 4 -1018 4 -808 0 -1023 -3 -1026 -12z"/>
        <path d="M5785 7620 c-687 -225 -1255 -412 -1261 -417 -11 -7 -499 -2172 -491
-2179 1 -2 680 674 1507 1501 828 828 1503 1505 1500 1504 -3 0 -567 -184
-1255 -409z"/>
        <path d="M206 7778 c189 -442 937 -2184 940 -2187 4 -5 2317 -671 2320 -668 3
3 -3277 2931 -3288 2935 -4 2 8 -34 28 -80z"/>
        <path d="M3 6841 l2 -924 444 -128 c245 -71 446 -127 448 -125 2 2 -199 475
-446 1052 l-450 1049 2 -924z"/>
        <path d="M3195 6776 c-594 -194 -1086 -355 -1093 -357 -7 -2 371 -347 840
-766 671 -598 855 -758 860 -745 4 10 115 503 248 1097 132 594 242 1090 245
1103 3 14 1 22 -7 21 -7 0 -499 -159 -1093 -353z"/>
        <path d="M15480 6899 c-214 -27 -388 -136 -458 -287 -24 -51 -27 -69 -27 -167
0 -99 3 -116 28 -169 63 -134 144 -196 403 -305 177 -75 304 -147 342 -196 29
-36 44 -94 36 -136 -29 -157 -211 -237 -438 -195 -117 23 -263 76 -342 125
-35 22 -64 35 -64 28 0 -21 81 -312 88 -319 4 -4 44 -18 87 -30 70 -18 107
-21 285 -22 197 -1 208 0 285 26 166 57 287 154 351 283 31 63 37 87 41 162 9
158 -33 251 -154 340 -105 77 -141 98 -264 148 -251 103 -345 162 -380 239
-23 50 -24 85 -4 134 32 76 106 124 223 143 134 22 256 -12 382 -106 l35 -26
3 142 c1 78 -1 146 -5 150 -4 4 -54 17 -110 28 -106 22 -225 25 -343 10z"/>
        <path d="M10016 6843 c20 -26 40 -58 45 -71 5 -13 9 -326 9 -698 0 -749 3
-714 -68 -786 l-36 -38 527 0 c290 0 527 1 527 3 0 2 25 74 55 161 31 88 53
161 51 163 -3 3 -17 -4 -33 -15 -60 -42 -154 -82 -234 -98 -67 -13 -115 -16
-249 -11 -91 4 -181 10 -200 14 l-35 9 0 279 0 280 124 -2 c158 -2 179 -6 240
-48 l51 -35 0 140 0 140 -210 0 -210 0 0 220 0 220 212 0 c207 0 212 0 254
-25 23 -14 54 -40 68 -57 l26 -33 0 168 0 167 -475 0 -475 0 36 -47z"/>
        <path d="M11345 6849 c73 -81 69 -40 66 -764 -2 -721 -2 -718 -66 -793 l-37
-42 360 0 c485 0 635 17 787 90 170 82 350 308 400 505 37 141 37 345 0 485
-55 212 -216 388 -435 476 -168 68 -311 84 -774 84 l-338 0 37 -41z m805 -189
c216 -62 362 -213 405 -418 19 -87 19 -238 0 -327 -46 -218 -206 -381 -435
-442 -68 -18 -346 -26 -383 -11 -16 7 -17 43 -15 610 l3 602 25 8 c14 4 93 6
175 4 117 -3 166 -9 225 -26z"/>
        <path d="M13177 6858 c18 -18 41 -53 52 -78 20 -43 21 -64 21 -557 0 -297 4
-544 10 -590 28 -204 158 -336 389 -394 72 -18 104 -20 225 -16 188 6 308 41
424 124 l47 33 3 -65 3 -65 205 0 205 0 -49 48 c-40 39 -52 58 -61 101 -7 35
-11 252 -11 675 0 691 -1 683 65 769 l36 47 -240 0 -240 0 34 -51 c19 -28 39
-68 45 -90 7 -27 10 -207 8 -542 l-3 -502 -24 -59 c-51 -128 -158 -194 -328
-204 -114 -6 -199 10 -276 51 -68 35 -100 71 -136 147 l-26 55 -3 507 c-2 334
1 520 8 546 5 22 28 63 51 91 l41 51 -253 0 -253 0 31 -32z"/>
        <path d="M16388 6853 c66 -85 62 -33 62 -783 0 -761 4 -717 -71 -785 l-39 -35
226 0 226 0 -45 44 c-27 26 -50 59 -57 82 -7 27 -10 195 -8 548 l3 510 416
-520 c229 -285 441 -542 471 -571 84 -78 184 -139 261 -157 l27 -6 0 785 c0
860 -4 802 58 883 14 18 23 35 20 37 -3 3 -94 4 -202 3 l-198 -3 31 -38 c62
-79 62 -72 59 -619 l-3 -496 -456 576 -456 577 -177 3 -178 2 30 -37z"/>
        <path d="M6897 5183 c-818 -598 -1486 -1088 -1484 -1089 5 -5 2300 715 2309
724 13 13 677 1452 670 1451 -4 0 -676 -489 -1495 -1086z"/>
        <path d="M8263 5517 c-156 -336 -280 -613 -278 -616 5 -4 554 165 562 173 2 1
2 239 1 528 l-3 525 -282 -610z"/>
        <path d="M0 3351 l0 -2366 1018 1018 1019 1018 -516 1204 -516 1203 -110 31
c-60 17 -287 82 -502 144 l-393 114 0 -2366z"/>
        <path d="M1190 5406 c0 -12 980 -2281 987 -2283 9 -3 1559 1544 1553 1550 -3
3 -563 165 -1245 361 -682 196 -1252 361 -1267 366 -16 5 -28 8 -28 6z"/>
        <path d="M8210 4763 c-184 -58 -338 -108 -343 -112 -14 -14 -1108 -2386 -1105
-2398 2 -6 404 -369 893 -805 l890 -795 3 1054 c1 579 1 1527 0 2107 l-3 1054
-335 -105z"/>
        <path d="M24855 4577 c-43 -12 -109 -20 -171 -20 l-101 -2 29 -36 c15 -19 33
-51 38 -70 15 -51 13 -1366 -2 -1410 -6 -19 -24 -51 -40 -71 l-30 -38 223 0
223 0 -31 33 c-61 64 -58 15 -63 857 l-5 775 -70 -18z"/>
        <path d="M6323 4172 c-695 -218 -1263 -399 -1263 -402 0 -6 1527 -1373 1539
-1377 4 -2 981 2097 1009 2169 2 4 -2 8 -10 7 -7 0 -581 -179 -1275 -397z"/>
        <path d="M10009 4535 c71 -81 66 -26 66 -780 0 -761 5 -706 -73 -787 l-36 -38
258 0 258 0 -37 41 c-68 76 -65 38 -65 781 0 743 -3 706 64 786 l28 32 -247 0
-247 0 31 -35z"/>
        <path d="M19477 4546 c-144 -53 -159 -250 -24 -315 55 -27 99 -27 154 0 62 30
93 80 93 147 0 125 -112 209 -223 168z"/>
        <path d="M12530 4403 c0 -74 -23 -179 -49 -230 -39 -77 -92 -112 -228 -149 -8
-2 -13 -21 -13 -48 l0 -45 73 -3 72 -3 5 -390 c5 -429 5 -422 71 -506 52 -66
145 -108 275 -124 l51 -6 77 98 77 98 -63 6 c-81 7 -162 43 -191 83 -22 31
-22 35 -22 386 l0 355 58 3 c88 5 165 -13 209 -49 l38 -30 0 121 0 120 -155 0
-155 0 0 185 0 185 -65 0 -65 0 0 -57z"/>
        <path d="M18680 4413 c0 -72 -19 -171 -42 -225 -37 -86 -93 -125 -235 -164 -8
-2 -13 -21 -13 -48 l0 -45 73 -3 72 -3 5 -395 c5 -361 7 -398 24 -430 56 -104
130 -157 261 -185 110 -23 104 -26 189 83 l76 97 -69 6 c-88 9 -166 49 -193
99 -17 32 -18 61 -16 380 l3 345 58 3 c88 5 165 -13 209 -49 l38 -30 0 121 0
120 -155 0 -155 0 0 185 0 185 -65 0 -65 0 0 -47z"/>
        <path d="M20574 4129 c-233 -39 -440 -212 -507 -424 -29 -93 -31 -288 -3 -380
49 -164 156 -294 299 -365 116 -57 202 -73 362 -67 213 8 335 58 471 192 136
134 180 254 171 465 -7 186 -54 299 -173 417 -78 76 -195 137 -307 158 -85 16
-230 18 -313 4z m261 -200 c315 -118 340 -677 36 -826 -48 -24 -67 -28 -141
-27 -113 1 -181 27 -260 101 -43 39 -71 77 -97 131 l-38 76 0 140 c1 123 4
148 24 198 38 97 137 190 231 219 53 16 187 10 245 -12z"/>
        <path d="M11055 4107 c-40 -13 -101 -21 -182 -24 l-122 -5 34 -35 c23 -23 37
-51 44 -84 12 -54 15 -846 5 -911 -4 -21 -21 -55 -41 -78 l-35 -40 222 0 221
0 -30 38 c-49 61 -52 95 -49 474 l3 346 30 39 c17 21 57 51 89 67 51 26 70 30
145 30 96 1 146 -13 193 -52 57 -48 58 -58 58 -449 0 -205 -4 -373 -10 -392
-5 -19 -24 -50 -42 -68 l-32 -33 228 0 229 0 -28 28 c-59 57 -59 62 -65 497
l-5 400 -28 60 c-69 148 -192 211 -407 209 -84 -1 -117 -6 -165 -24 -66 -25
-127 -64 -165 -105 l-25 -27 -5 79 -5 79 -60 -19z"/>
        <path d="M14875 4108 c-38 -13 -99 -22 -167 -25 l-107 -6 31 -38 c28 -35 32
-48 40 -141 14 -151 5 -835 -11 -873 -7 -16 -26 -45 -44 -62 l-31 -33 226 0
226 0 -28 30 c-52 56 -55 79 -55 415 0 362 5 394 69 460 44 46 92 65 161 65
52 0 113 -17 148 -42 l27 -19 0 137 0 136 -92 -4 c-79 -3 -104 -9 -165 -37
-39 -18 -86 -48 -104 -67 -18 -19 -37 -34 -41 -34 -4 0 -8 36 -8 80 0 44 -3
80 -7 79 -5 -1 -35 -10 -68 -21z"/>
        <path d="M15845 4107 c-39 -12 -103 -21 -183 -24 l-124 -5 30 -32 c58 -61 57
-48 60 -491 4 -493 2 -520 -44 -580 l-34 -45 221 0 221 0 -30 35 c-17 19 -36
51 -41 72 -17 61 -14 715 3 756 17 42 85 101 133 115 106 32 229 23 295 -21
18 -12 43 -42 56 -67 22 -43 22 -51 22 -395 0 -213 -4 -365 -11 -388 -5 -21
-24 -53 -41 -72 l-30 -35 227 0 228 0 -25 20 c-14 11 -34 39 -44 62 -17 39
-19 83 -24 438 -5 386 -6 396 -29 455 -32 80 -107 155 -184 183 -131 49 -280
52 -402 8 -63 -23 -173 -97 -177 -120 -1 -6 -4 25 -7 70 l-6 80 -60 -19z"/>
        <path d="M19600 4113 c-25 -8 -100 -17 -168 -20 l-123 -6 29 -31 c16 -17 35
-41 41 -53 15 -29 16 -940 0 -980 -5 -15 -24 -43 -42 -60 l-31 -33 229 0 229
0 -37 38 c-28 28 -39 51 -47 91 -6 32 -10 259 -10 562 0 401 -3 509 -12 508
-7 -1 -33 -8 -58 -16z"/>
        <path d="M21955 4107 c-39 -13 -102 -21 -177 -24 l-118 -5 29 -34 c17 -18 35
-50 40 -71 15 -52 15 -912 0 -950 -5 -15 -24 -43 -42 -60 l-31 -33 230 0 c159
1 224 4 212 11 -10 5 -30 31 -45 57 l-28 47 0 365 c0 329 2 368 17 397 21 37
68 75 124 100 53 23 214 23 265 0 43 -19 96 -76 106 -115 5 -15 8 -184 8 -377
0 -382 -2 -401 -57 -455 l-30 -30 228 0 228 0 -31 33 c-17 17 -35 47 -42 66
-7 23 -11 148 -11 375 0 189 -5 370 -11 406 -29 184 -141 285 -344 312 -159
20 -310 -21 -409 -112 l-45 -42 -3 79 -3 79 -60 -19z"/>
        <path d="M13599 4095 c-214 -52 -381 -217 -435 -427 -20 -75 -22 -234 -4 -309
55 -241 257 -411 543 -460 99 -17 318 -7 386 17 53 18 56 22 123 129 38 61 75
123 84 138 l15 28 -78 -39 c-120 -60 -197 -83 -299 -89 -164 -10 -296 27 -362
102 -56 64 -112 180 -119 248 l-6 57 433 0 433 0 -6 98 c-15 268 -148 448
-374 506 -75 20 -255 20 -334 1z m297 -190 c61 -38 105 -107 112 -175 l5 -50
-273 0 -272 0 6 33 c10 54 59 138 97 169 56 45 103 58 195 56 70 -3 87 -7 130
-33z"/>
        <path d="M17467 4097 c-46 -12 -51 -17 -137 -140 -50 -70 -90 -129 -90 -131 0
-2 37 9 83 25 156 53 282 70 359 49 123 -35 155 -176 51 -229 -22 -11 -117
-36 -213 -56 -258 -54 -359 -103 -417 -202 -25 -44 -28 -57 -28 -143 0 -83 3
-102 28 -151 15 -31 51 -79 80 -107 107 -100 216 -132 365 -106 48 8 90 18 94
22 16 17 127 176 124 179 -2 2 -34 -4 -72 -13 -231 -54 -401 74 -324 244 16
36 29 47 83 73 47 22 315 99 344 99 1 0 3 -89 3 -197 0 -109 5 -215 11 -236
30 -108 188 -200 308 -179 36 6 47 16 111 102 l71 95 -64 7 c-67 6 -113 25
-138 54 -11 14 -15 86 -19 383 -6 415 -2 395 -90 474 -82 74 -137 90 -320 93
-99 2 -172 -1 -203 -9z"/>
        <path d="M23580 4098 c-43 -9 -48 -14 -137 -141 -50 -73 -90 -133 -89 -134 1
-2 29 8 62 20 158 62 341 81 418 43 101 -50 101 -180 0 -222 -18 -8 -107 -29
-197 -48 -233 -50 -318 -85 -390 -165 -37 -41 -67 -120 -67 -177 0 -147 110
-299 257 -354 68 -26 189 -29 268 -7 46 12 55 20 114 101 35 48 61 89 59 92
-3 2 -36 -3 -74 -12 -132 -31 -261 0 -312 77 -20 29 -23 44 -20 101 3 54 8 72
28 94 40 43 144 83 306 119 38 8 79 17 92 21 l22 6 0 -213 c0 -195 2 -216 21
-256 34 -70 114 -125 208 -143 94 -18 112 -8 191 96 38 51 70 95 70 97 0 3
-28 7 -63 9 -71 6 -120 27 -139 61 -10 16 -15 119 -19 392 -3 204 -6 371 -7
371 -1 1 -16 19 -33 40 -52 66 -121 111 -198 128 -78 18 -296 20 -371 4z"/>
        <path d="M3916 3008 c-594 -434 -874 -643 -865 -648 25 -14 2172 -710 2176
-706 3 3 -417 1947 -430 1988 -1 4 -397 -282 -881 -634z"/>
        <path d="M5020 3533 c1 -15 428 -1954 431 -1957 4 -3 2368 -773 2648 -862 124
-40 133 -41 110 -20 -13 13 -634 567 -1379 1232 -745 664 -1457 1300 -1582
1412 -126 112 -228 200 -228 195z"/>
        <path d="M21490 2270 c-69 -27 -185 -43 -253 -35 l-60 6 36 -41 c27 -32 37
-54 42 -94 3 -28 5 -356 3 -728 l-3 -676 -32 -46 -33 -46 211 0 211 0 -26 30
c-44 53 -47 87 -44 464 l3 353 27 40 c38 58 119 95 218 101 118 7 198 -25 247
-97 23 -34 23 -36 23 -395 0 -207 -4 -376 -10 -395 -5 -19 -24 -50 -42 -68
l-32 -33 223 0 222 0 -25 33 c-49 64 -50 69 -55 497 -6 399 -6 406 -30 457
-65 145 -266 230 -487 205 -103 -12 -146 -30 -228 -97 l-56 -45 -2 314 -3 314
-45 -18z"/>
        <path d="M17245 2253 c-28 -8 -97 -15 -156 -16 l-106 -2 29 -36 c15 -19 33
-51 38 -70 15 -50 13 -1366 -1 -1410 -6 -19 -25 -51 -41 -71 l-29 -38 222 0
223 0 -31 33 c-61 64 -58 14 -61 855 -3 721 -4 772 -20 771 -9 0 -39 -7 -67
-16z"/>
        <path d="M18990 2260 c-231 -23 -407 -128 -483 -287 -30 -63 -32 -75 -32 -173
0 -97 2 -110 32 -172 34 -73 102 -148 173 -193 24 -15 118 -59 209 -97 260
-110 356 -172 387 -253 53 -140 -77 -279 -273 -292 -138 -10 -366 53 -499 136
-35 22 -64 35 -64 28 1 -7 20 -82 43 -167 l42 -155 51 -16 c127 -41 386 -56
524 -30 138 26 290 108 370 198 22 26 55 76 73 112 31 63 32 71 32 187 0 114
-2 123 -30 179 -22 43 -48 74 -95 111 -94 77 -151 108 -337 188 -285 123 -346
174 -346 294 0 140 167 229 379 202 81 -10 141 -37 237 -107 l47 -35 0 150 0
149 -57 16 c-129 36 -224 42 -383 27z"/>
        <path d="M26210 2253 c-30 -7 -101 -15 -157 -16 -57 -1 -103 -3 -103 -5 0 -2
15 -21 33 -44 l32 -40 3 -697 c2 -483 0 -708 -8 -734 -6 -20 -25 -53 -41 -72
l-31 -35 222 0 222 0 -35 40 c-19 23 -37 55 -41 72 -3 17 -6 372 -6 789 0 717
-1 759 -17 758 -10 -1 -43 -8 -73 -16z"/>
        <path d="M9969 2215 c17 -20 40 -53 51 -75 19 -38 20 -58 20 -684 0 -427 -4
-662 -11 -696 -7 -32 -25 -68 -50 -100 l-39 -50 377 0 c479 0 619 16 768 90
125 61 269 211 340 355 69 141 80 192 80 390 0 148 -3 180 -23 250 -60 206
-180 344 -387 445 -187 91 -330 109 -859 110 l-298 0 31 -35z m786 -189 c214
-57 362 -195 421 -391 23 -75 26 -292 5 -375 -52 -211 -205 -366 -422 -426
-49 -14 -102 -18 -224 -19 -88 0 -168 3 -177 7 -17 7 -18 45 -18 607 l0 600
33 10 c48 15 310 6 382 -13z"/>
        <path d="M11970 2227 c-79 -26 -120 -83 -120 -165 0 -63 18 -102 62 -136 65
-49 154 -46 215 7 63 56 80 134 44 205 -24 47 -50 70 -98 88 -46 16 -57 16
-103 1z"/>
        <path d="M14194 2231 c-63 -16 -108 -64 -123 -133 -14 -62 2 -114 50 -160 44
-42 82 -53 147 -43 60 9 127 72 137 128 24 128 -88 239 -211 208z"/>
        <path d="M1677 1375 l-1159 -845 2482 0 c1982 0 2481 3 2477 12 -2 7 -46 205
-97 440 -52 235 -96 432 -100 438 -5 7 -2352 778 -2425 795 -15 4 -327 -219
-1178 -840z"/>
        <path d="M14977 2047 c-12 -207 -86 -304 -259 -341 -26 -6 -28 -10 -28 -56 l0
-50 75 0 75 0 0 -354 c0 -195 5 -377 10 -406 13 -66 61 -143 114 -181 45 -33
135 -64 217 -74 l55 -7 77 96 c42 52 77 97 77 99 0 2 -30 7 -67 9 -86 6 -165
44 -190 91 -16 29 -18 69 -21 380 l-3 349 115 -4 c112 -3 115 -4 155 -36 l41
-33 0 121 0 120 -155 0 -155 0 0 185 0 185 -64 0 -63 0 -6 -93z"/>
        <path d="M23275 1813 c-145 -20 -280 -88 -385 -193 -126 -125 -174 -243 -173
-430 0 -181 49 -313 158 -428 73 -78 144 -123 247 -159 97 -34 303 -43 418
-19 224 48 411 208 476 410 22 68 27 100 27 196 1 198 -47 326 -168 447 -123
123 -287 185 -483 182 -48 -1 -100 -4 -117 -6z m236 -206 c75 -31 122 -71 169
-141 50 -73 70 -138 77 -247 20 -310 -188 -521 -447 -455 -224 58 -350 291
-300 557 24 129 115 246 223 288 76 29 204 28 278 -2z"/>
        <path d="M24840 1806 c-146 -31 -289 -111 -375 -209 -98 -112 -145 -243 -145
-408 0 -184 55 -324 175 -444 82 -82 161 -125 285 -156 112 -29 317 -23 425
11 198 62 340 195 413 388 23 60 26 81 26 207 0 127 -2 147 -27 218 -65 185
-196 314 -381 373 -101 32 -292 42 -396 20z m292 -205 c102 -49 183 -150 213
-266 19 -76 19 -224 -1 -300 -29 -113 -101 -207 -192 -252 -50 -24 -69 -28
-147 -28 -80 0 -97 3 -158 32 -176 84 -268 277 -238 498 23 166 114 289 245
331 65 22 220 13 278 -15z"/>
        <path d="M12090 1793 c-25 -8 -100 -17 -167 -20 l-123 -6 27 -31 c53 -63 53
-62 53 -538 0 -291 -4 -457 -11 -483 -6 -21 -26 -54 -44 -72 l-33 -33 225 0
225 0 -30 35 c-17 19 -36 51 -41 72 -7 24 -11 228 -11 566 0 415 -3 527 -12
526 -7 -1 -33 -8 -58 -16z"/>
        <path d="M14310 1794 c-25 -9 -101 -18 -172 -21 l-128 -6 35 -36 c20 -20 40
-52 45 -71 14 -49 13 -894 -1 -943 -5 -20 -26 -53 -45 -72 l-35 -35 226 0 227
0 -35 40 c-19 23 -37 55 -41 72 -3 17 -6 268 -6 559 0 417 -3 529 -12 528 -7
0 -33 -7 -58 -15z"/>
        <path d="M20440 1790 c-304 -29 -547 -237 -596 -510 -48 -269 78 -510 335
-639 104 -53 198 -73 341 -74 98 -1 144 4 215 21 l90 23 87 137 c47 75 86 138
85 139 -1 1 -47 -21 -102 -48 -125 -62 -218 -83 -335 -76 -185 11 -344 116
-401 265 -44 115 -36 283 19 385 37 69 129 151 194 173 111 38 289 14 374 -51
18 -14 35 -25 38 -25 3 0 6 56 6 124 l0 124 -67 15 c-87 20 -188 26 -283 17z"/>
        <path d="M13680 1775 c-84 -16 -273 -18 -530 -4 -177 9 -215 9 -280 -5 -262
-55 -423 -273 -366 -497 37 -144 162 -254 346 -305 l61 -18 69 69 c39 38 66
72 62 76 -4 3 -27 14 -52 23 -58 21 -157 96 -183 135 -10 17 -21 57 -24 91 -7
79 14 136 72 189 148 136 412 54 456 -143 31 -139 -40 -246 -238 -362 -93 -54
-113 -76 -113 -122 0 -49 41 -113 90 -141 28 -16 63 -22 141 -27 157 -9 236
-51 297 -154 23 -37 27 -57 27 -115 -1 -81 -24 -135 -77 -180 -138 -117 -436
-124 -601 -15 -117 78 -127 207 -20 265 l48 25 -105 -5 c-149 -9 -204 -26
-261 -83 -58 -58 -69 -104 -44 -188 29 -100 127 -178 292 -233 269 -91 639
-54 846 83 82 54 161 144 188 213 30 79 37 202 15 276 -40 138 -152 217 -359
252 -196 33 -202 62 -33 152 148 77 197 148 204 290 4 82 2 97 -21 146 -14 31
-46 75 -71 100 l-46 43 108 -4 c105 -4 108 -4 119 19 7 13 30 57 52 97 46 82
50 79 -69 57z"/>
        <path d="M15991 1780 c-25 -5 -51 -15 -58 -22 -14 -14 -182 -252 -180 -254 1
-1 47 13 102 32 173 58 299 67 381 28 73 -35 97 -125 49 -183 -31 -35 -78 -52
-245 -86 -232 -47 -321 -84 -391 -163 -104 -119 -86 -307 44 -436 103 -103
222 -140 367 -112 45 8 88 21 96 27 20 17 126 170 121 175 -2 2 -33 -3 -68
-12 -127 -33 -267 0 -316 75 -40 60 -28 166 24 213 27 25 136 64 275 98 66 17
123 30 124 30 2 0 4 -95 4 -212 0 -194 2 -215 21 -255 46 -95 182 -164 291
-147 36 6 46 16 113 104 l74 97 -67 5 c-74 6 -125 27 -144 61 -10 16 -14 117
-18 387 -4 258 -9 371 -17 386 -27 47 -130 130 -184 148 -62 21 -323 32 -398
16z"/>
        <path d="M5500 1343 c0 -5 40 -188 88 -408 l88 -400 1174 -3 c645 -1 1172 0
1169 2 -6 6 -2498 816 -2510 816 -5 0 -9 -3 -9 -7z"/>
    </g>
</svg>